<?xml version="1.0" encoding="utf-8"?>
<!-- Generator: Adobe Illustrator 21.1.0, SVG Export Plug-In . SVG Version: 6.00 Build 0)  -->
<svg version="1.1" id="Capa_1" xmlns:sketch="http://www.bohemiancoding.com/sketch/ns"
	 xmlns="http://www.w3.org/2000/svg" xmlns:xlink="http://www.w3.org/1999/xlink" x="0px" y="0px" viewBox="0 0 150 65.9"
	 style="enable-background:new 0 0 150 65.9;" xml:space="preserve">
<style type="text/css">
	.st0{fill:#FFFFFF;}
</style>
<title>download 3</title>
<desc>Created with Sketch.</desc>
<g>
	<g>
		<path class="st0" d="M8.1,22h6.5c1.6,0,2.8,0.2,3.7,0.6c0.9,0.4,1.5,1,1.8,1.7c0.3,0.7,0.4,1.6,0.3,2.6c-0.1,1-0.4,2.1-0.9,3.3
			L19,31.7c-0.5,1.2-1,2.3-1.7,3.3c-0.6,1-1.4,1.9-2.3,2.6c-0.9,0.7-1.9,1.3-3.1,1.7c-1.2,0.4-2.6,0.6-4.1,0.6H1.3L8.1,22z M7.3,36
			h1.6c0.7,0,1.2-0.1,1.8-0.2c0.5-0.2,1-0.4,1.5-0.8c0.4-0.4,0.9-0.8,1.2-1.4c0.4-0.6,0.7-1.3,1.1-2.2l0.4-1
			c0.4-0.9,0.6-1.7,0.7-2.3c0.1-0.6,0-1.1-0.1-1.4c-0.2-0.4-0.5-0.6-0.9-0.7c-0.4-0.1-0.9-0.2-1.6-0.2h-1.6L7.3,36z"/>
		<path class="st0" d="M23.8,26.7h4.6l-5.1,13.1h-4.6L23.8,26.7z M26.5,25.6c-1,0-1.5-0.2-1.8-0.6c-0.2-0.4-0.2-0.9,0-1.6
			c0.3-0.7,0.7-1.2,1.2-1.6c0.5-0.4,1.3-0.6,2.2-0.6c1,0,1.5,0.2,1.8,0.6c0.2,0.4,0.2,1-0.1,1.6c-0.3,0.7-0.7,1.2-1.2,1.6
			C28.2,25.4,27.5,25.6,26.5,25.6z"/>
		<path class="st0" d="M34.7,38.6c-0.5,0.3-1,0.6-1.6,0.8c-0.6,0.2-1.3,0.4-2,0.4c-1.6,0-2.7-0.5-3.2-1.5c-0.5-1-0.3-2.6,0.6-4.8
			l0.2-0.6c0.5-1.2,1-2.2,1.6-3s1.4-1.5,2.2-2c0.8-0.5,1.7-0.9,2.6-1.1c0.9-0.2,1.9-0.4,3-0.4c1.3,0,2.3,0.1,3.1,0.4
			c0.8,0.3,1.5,0.6,2.1,1l-4.2,10.8c-0.5,1.2-1,2.2-1.7,3.1c-0.7,0.9-1.5,1.6-2.3,2.2c-0.8,0.6-1.7,1.1-2.7,1.4
			c-1,0.3-1.9,0.5-2.9,0.5c-1,0-2-0.1-2.8-0.2c-0.9-0.1-1.7-0.4-2.4-0.7l2-3.3c0.4,0.2,1,0.3,1.6,0.4c0.7,0.1,1.4,0.2,2.1,0.2
			c1.1,0,1.9-0.2,2.7-0.7c0.7-0.5,1.3-1.3,1.8-2.5L34.7,38.6z M33,33.7c-0.4,1-0.5,1.7-0.4,2.1c0.1,0.4,0.5,0.6,1,0.6
			c0.6,0,1.1-0.2,1.6-0.5c0.4-0.3,0.8-1,1.2-1.9l1.5-3.9c-0.3-0.2-0.7-0.3-1.3-0.3c-0.6,0-1.2,0.2-1.7,0.6c-0.6,0.4-1,1.1-1.4,2.1
			L33,33.7z"/>
		<path class="st0" d="M46.9,26.7h4.6l-5.1,13.1h-4.6L46.9,26.7z M49.6,25.6c-1,0-1.5-0.2-1.8-0.6c-0.2-0.4-0.2-0.9,0-1.6
			c0.3-0.7,0.7-1.2,1.2-1.6c0.5-0.4,1.3-0.6,2.2-0.6c1,0,1.5,0.2,1.8,0.6c0.2,0.4,0.2,1-0.1,1.6c-0.3,0.7-0.7,1.2-1.2,1.6
			C51.3,25.4,50.5,25.6,49.6,25.6z"/>
		<path class="st0" d="M49.6,39.9L56.4,22h7.4c1,0,1.8,0.1,2.4,0.3c0.6,0.2,1.1,0.5,1.4,1c0.3,0.4,0.4,0.9,0.5,1.5
			c0,0.6-0.1,1.2-0.4,1.9L67.6,27c-0.3,0.8-0.7,1.4-1.3,2c-0.5,0.6-1.2,1.1-2,1.5c0.6,0.4,0.9,0.9,1.1,1.6c0.1,0.7,0.1,1.5-0.3,2.4
			L65,34.8c-0.6,1.6-1.6,2.8-3,3.7c-1.4,0.9-3.2,1.4-5.5,1.4H49.6z M55.2,36.4H58c0.6,0,1.1-0.1,1.6-0.4c0.5-0.3,0.8-0.7,1.1-1.3
			l0.1-0.4c0.3-0.7,0.3-1.2,0-1.5c-0.2-0.3-0.7-0.5-1.4-0.5h-2.7L55.2,36.4z M58.1,28.9h2.7c0.5,0,1-0.1,1.4-0.4
			c0.4-0.3,0.7-0.7,0.9-1.2l0.1-0.3c0.2-0.6,0.2-1,0-1.2c-0.3-0.2-0.7-0.4-1.2-0.4h-2.6L58.1,28.9z"/>
		<path class="st0" d="M83.7,26.7L73.6,40.3c-0.6,0.9-1.2,1.6-1.8,2.3c-0.6,0.7-1.2,1.3-1.9,1.8c-0.6,0.5-1.3,0.9-2.1,1.1
			c-0.7,0.3-1.6,0.4-2.5,0.4c-0.3,0-0.6,0-0.9-0.1c-0.3,0-0.6-0.1-0.9-0.1c-0.3-0.1-0.6-0.1-0.8-0.2c-0.2-0.1-0.4-0.1-0.5-0.2
			l1.9-3.4c0.3,0.1,0.5,0.1,0.9,0.2c0.3,0,0.6,0.1,1,0.1c0.5,0,1-0.1,1.4-0.3c0.5-0.2,0.9-0.5,1.3-1l0.7-1l-0.1-13.1h5.2l-0.7,8.2
			l5.2-8.2H83.7z"/>
		<path class="st0" d="M90.1,30l-1.8,4.7c-0.5,1.3-0.1,2,1.1,2c0.5,0,0.9,0,1.2-0.1c0.3,0,0.6-0.1,0.9-0.1l-1.7,3.2
			c-0.2,0.1-0.4,0.1-0.6,0.2c-0.2,0.1-0.5,0.1-0.8,0.1c-0.3,0-0.6,0.1-0.8,0.1c-0.3,0-0.6,0-0.8,0c-1,0-1.7-0.1-2.3-0.3
			c-0.6-0.2-0.9-0.6-1.2-1c-0.2-0.5-0.3-1-0.2-1.7c0.1-0.7,0.3-1.5,0.7-2.4l1.8-4.7h-2.3l1.8-3.3h1.9l1.2-3l4.8-0.6l-1.4,3.6h3.8
			L93.4,30H90.1z"/>
		<path class="st0" d="M98.1,34.6c-0.1,0.4-0.2,0.8-0.1,1.1c0,0.3,0.1,0.5,0.3,0.7c0.2,0.2,0.5,0.3,0.9,0.4c0.4,0.1,0.9,0.1,1.5,0.1
			c0.6,0,1.3,0,2-0.1c0.7-0.1,1.4-0.2,2.1-0.3l-1.8,3c-0.3,0.1-0.6,0.2-1,0.2c-0.4,0.1-0.8,0.1-1.3,0.2c-0.4,0.1-0.9,0.1-1.3,0.1
			c-0.5,0-0.9,0.1-1.3,0.1c-1.2,0-2.2-0.2-2.9-0.5c-0.7-0.3-1.2-0.7-1.5-1.3c-0.3-0.6-0.4-1.2-0.3-2c0.1-0.8,0.3-1.7,0.7-2.6
			l0.2-0.5c0.4-1,0.8-1.8,1.3-2.7c0.5-0.8,1.1-1.6,1.9-2.2c0.7-0.6,1.6-1.1,2.5-1.5c1-0.4,2.1-0.5,3.3-0.5c1.2,0,2.1,0.2,2.7,0.5
			c0.6,0.3,1.1,0.7,1.3,1.3c0.2,0.5,0.3,1.1,0.2,1.8c-0.1,0.7-0.3,1.4-0.5,2.1l-0.4,1.1c-0.3,0.7-0.5,1.1-0.9,1.3
			c-0.3,0.2-0.8,0.3-1.5,0.3H98.1z M102,29.6c-1.3,0-2.3,0.8-3,2.4h3.9l0.1-0.4C103.6,30.3,103.2,29.6,102,29.6z"/>
		<path class="st0" d="M127.4,25.5c-0.8,0-1.5,0.1-2.1,0.2c-0.6,0.1-1.2,0.4-1.7,0.8c-0.5,0.4-1,0.8-1.4,1.5
			c-0.4,0.6-0.8,1.4-1.2,2.3l-0.6,1.5c-0.4,1-0.6,1.7-0.7,2.3c-0.1,0.6-0.1,1.1,0.1,1.4c0.2,0.4,0.4,0.6,0.9,0.7
			c0.4,0.1,0.9,0.2,1.6,0.2c0.3,0,0.5,0,0.7,0c0.2,0,0.4,0,0.7-0.1l1.2-3.2h-2.1l1.7-3.3h5.8l-3.6,9.4c-0.9,0.3-1.9,0.5-3,0.6
			c-1.1,0.2-2.3,0.2-3.6,0.2c-1.4,0-2.6-0.2-3.4-0.6c-0.8-0.4-1.4-0.9-1.7-1.7c-0.3-0.7-0.4-1.6-0.3-2.6c0.1-1,0.4-2.1,0.9-3.3
			l0.7-1.8c0.4-1.2,1-2.2,1.7-3.3c0.7-1,1.5-1.9,2.4-2.7c1-0.8,2.1-1.4,3.3-1.8c1.3-0.4,2.7-0.7,4.4-0.7c0.9,0,1.8,0.1,2.6,0.2
			c0.8,0.2,1.5,0.3,2,0.5l-2.1,3.4c-0.4-0.2-0.9-0.3-1.5-0.4C128.8,25.5,128.1,25.5,127.4,25.5z"/>
		<path class="st0" d="M144.1,21.6c1.6,0,2.7,0.2,3.6,0.7c0.8,0.4,1.4,1,1.6,1.8c0.3,0.8,0.3,1.6,0.1,2.6c-0.2,1-0.5,2.1-0.9,3.2
			l-0.8,2.1c-0.5,1.2-1,2.4-1.7,3.4c-0.6,1-1.4,1.9-2.2,2.6c-0.9,0.7-1.9,1.3-3,1.7c-1.1,0.4-2.5,0.6-4,0.6c-1.6,0-2.7-0.2-3.5-0.7
			c-0.8-0.4-1.4-1-1.6-1.8c-0.3-0.8-0.3-1.6-0.2-2.6c0.2-1,0.5-2.1,0.9-3.2l0.8-2.1c0.5-1.2,1-2.4,1.7-3.4c0.6-1,1.4-1.9,2.3-2.6
			c0.9-0.7,1.9-1.3,3-1.7C141.3,21.8,142.6,21.6,144.1,21.6z M138.3,36.5c0.4,0,0.8-0.1,1.2-0.2c0.4-0.1,0.8-0.3,1.2-0.7
			c0.4-0.3,0.8-0.8,1.1-1.4c0.4-0.6,0.7-1.3,1.1-2.3l0.9-2.3c0.4-1,0.6-1.7,0.7-2.3c0.1-0.6,0.1-1,0-1.4c-0.1-0.3-0.3-0.5-0.7-0.6
			c-0.3-0.1-0.7-0.2-1.2-0.2c-0.5,0-0.9,0.1-1.3,0.2c-0.4,0.1-0.8,0.3-1.2,0.7c-0.4,0.3-0.7,0.8-1.1,1.4c-0.4,0.6-0.7,1.3-1.1,2.3
			l-0.9,2.3c-0.4,1-0.6,1.7-0.7,2.3c-0.1,0.6-0.1,1,0.1,1.4c0.1,0.3,0.3,0.5,0.7,0.6C137.5,36.5,137.9,36.5,138.3,36.5z"/>
	</g>
</g>
</svg>
