<?xml version="1.0" encoding="utf-8"?>
<!-- Generator: Adobe Illustrator 21.1.0, SVG Export Plug-In . SVG Version: 6.00 Build 0)  -->
<svg version="1.1" id="Layer_1" xmlns="http://www.w3.org/2000/svg" xmlns:xlink="http://www.w3.org/1999/xlink" x="0px" y="0px"
	 viewBox="0 0 377 247" style="enable-background:new 0 0 377 247;" xml:space="preserve">
<style type="text/css">
	.st0{fill:#002352;}
	.st1{fill:#0066CC;}
	.st2{opacity:0.3;fill:url(#Shape_6_);enable-background:new    ;}
	.st3{fill:#FFFFFF;}
	.st4{opacity:0.3;fill:url(#Shape_7_);enable-background:new    ;}
	.st5{fill:#17BAE0;}
</style>
<title>tour-currency</title>
<desc>Created with Sketch.</desc>
<g>
	<circle class="st0" cx="188.5" cy="123.5" r="107.3"/>
	<g>
		<path class="st1" d="M188.5,0C120.3,0,65,55.3,65,123.5S120.3,247,188.5,247S312,191.7,312,123.5S256.7,0,188.5,0z"/>
		<circle class="st0" cx="188.5" cy="123.5" r="100.3"/>
	</g>
	
		<linearGradient id="Shape_6_" gradientUnits="userSpaceOnUse" x1="-230.5607" y1="420.5756" x2="-230.5607" y2="419.6809" gradientTransform="matrix(247 0 0 -247 57137 103882.1563)">
		<stop  offset="0" style="stop-color:#002352"/>
		<stop  offset="1" style="stop-color:#002352"/>
	</linearGradient>
	<path id="Shape" class="st2" d="M188.5,247c68.2,0,123.5-55.3,123.5-123.5S256.7,0,188.5,0S65,55.3,65,123.5S120.3,247,188.5,247z"
		/>
</g>
<g id="Page-1">
	<g id="tour-currency" transform="translate(-1.000000, 0.000000)">
		<g id="Group" transform="translate(76.000000, 61.000000)">
			<path id="Shape_2_" class="st3" d="M226.2,124h-0.5v-4h0.5V124z M226.2,116h-0.5v-4h0.5V116z M226.2,108h-0.5v-4h0.5V108z
				 M226.2,100h-0.5v-4h0.5V100z M226.2,92h-0.5v-4h0.5V92z M226.2,84h-0.5v-4h0.5V84z M226.2,76h-0.5v-4h0.5V76z M226.2,68h-0.5v-4
				h0.5V68z M226.2,60h-0.5v-4h0.5V60z M226.2,52h-0.5v-4h0.5V52z M226.2,44h-0.5v-4h0.5V44z M226.2,36h-0.5v-4h0.5V36z M226.2,28
				h-0.5v-4h0.5V28z M226.2,20h-0.5v-4h0.5V20z M226.2,12h-0.5V8h0.5V12z M226.2,4h-0.5V0h0.5V4z"/>
			<path id="Shape_3_" class="st3" d="M151.2,124h-0.5v-4h0.5V124z M151.2,116h-0.5v-4h0.5V116z M151.2,108h-0.5v-4h0.5V108z
				 M151.2,100h-0.5v-4h0.5V100z M151.2,92h-0.5v-4h0.5V92z M151.2,84h-0.5v-4h0.5V84z M151.2,76h-0.5v-4h0.5V76z M151.2,68h-0.5v-4
				h0.5V68z M151.2,60h-0.5v-4h0.5V60z M151.2,52h-0.5v-4h0.5V52z M151.2,44h-0.5v-4h0.5V44z M151.2,36h-0.5v-4h0.5V36z M151.2,28
				h-0.5v-4h0.5V28z M151.2,20h-0.5v-3.2h0.5V20z"/>
			<path id="Shape_4_" class="st3" d="M76.2,124h-0.5v-4h0.5V124z M76.2,116h-0.5v-4h0.5V116z M76.2,108h-0.5v-4h0.5V108z M76.2,100
				h-0.5v-4h0.5V100z M76.2,92h-0.5v-4h0.5V92z M76.2,84h-0.5v-4h0.5V84z M76.2,76h-0.5v-4h0.5V76z M76.2,68h-0.5v-4h0.5V68z
				 M76.2,60h-0.5v-4h0.5V60z M76.2,52h-0.5v-2h0.5V52z"/>
			<path id="Shape_5_" class="st3" d="M1.2,124H0.7v-4h0.5V124z M1.2,116H0.7v-4h0.5V116z M1.2,108H0.7v-4h0.5V108z M1.2,100H0.7v-4
				h0.5V100z M1.2,92H0.7v-4h0.5V92z M1.2,84H0.7v-4h0.5V84z M1.2,76H0.7v-4h0.5V76z M1.2,68H0.7v-4h0.5V68z M1.2,60H0.7v-4h0.5V60z
				"/>
		</g>
		
			<linearGradient id="Shape_7_" gradientUnits="userSpaceOnUse" x1="-229.8813" y1="419.12" x2="-229.8813" y2="420.12" gradientTransform="matrix(375 0 0 -150 86395 63053)">
			<stop  offset="0" style="stop-color:#002352"/>
			<stop  offset="1" style="stop-color:#002352"/>
		</linearGradient>
		<polygon id="Shape_1_" class="st4" points="56.3,127.3 99.7,97.8 142.1,119.9 186.6,80.7 224.9,80.7 249.7,47.5 282.8,67.2 
			323.2,56.1 377,35 377,185 152.1,185 2.4,185 2,133.5 		"/>
		<path class="st5" d="M378.8,34.3c-0.4-1-1.6-1.6-2.6-1.2l-53.8,21.1L283,65.1l-32.4-19.3c-0.9-0.4-2-0.2-2.5,0.6l-24.2,32.4h-37.3
			c-0.4,0-0.9,0-1.4,0.4l-43.5,38.2L100.6,96l-0.1-0.1c-0.6-0.2-1.3-0.1-1.9,0.2l-42.9,29.2l-53.9,6.2c-0.6,0.1-1.1,0.4-1.4,0.9
			c-0.3,0.4-0.4,0.9-0.3,1.4c0.2,0.9,0.8,1.5,1.6,1.7l0.2,0.2l54.8-6.3l0.3,0l0.1-0.1c0.1,0,0.3-0.1,0.4-0.2l42.4-28.8l41.3,21.6
			c0.7,0.4,1.7,0.3,2.3-0.2l43.9-38.8h37.5c0.7,0,1.3-0.3,1.6-0.8l23.8-31.8L281.7,69l0.3,0.1c0.3,0.1,0.8,0.3,1.3,0.1l40.3-11.1
			h0.2l54-21.2C378.7,36.5,379.2,35.3,378.8,34.3z"/>
		<g id="Group_1_" transform="translate(185.000000, 38.000000)">
			<g>
				<circle id="dot_1_" class="st1" cx="1.6" cy="43.3" r="4.5"/>
				<path class="st3" d="M1.6,48.7c-3,0-5.5-2.5-5.5-5.5s2.5-5.5,5.5-5.5c3,0,5.5,2.5,5.5,5.5S4.7,48.7,1.6,48.7z M1.6,39.7
					c-1.9,0-3.5,1.6-3.5,3.5s1.6,3.5,3.5,3.5s3.5-1.6,3.5-3.5S3.6,39.7,1.6,39.7z"/>
			</g>
		</g>
	</g>
</g>
</svg>
