<?xml version="1.0" encoding="utf-8"?>
<!-- Generator: Adobe Illustrator 21.1.0, SVG Export Plug-In . SVG Version: 6.00 Build 0)  -->
<svg version="1.1" id="Layer_1" xmlns="http://www.w3.org/2000/svg" xmlns:xlink="http://www.w3.org/1999/xlink" x="0px" y="0px"
	 viewBox="0 0 247 247" style="enable-background:new 0 0 247 247;" xml:space="preserve">
<style type="text/css">
	.st0{fill:#002352;}
	.st1{fill:#0066CC;}
	.st2{opacity:0.3;fill:url(#Shape_2_);enable-background:new    ;}
	.st3{opacity:0.3;fill:url(#Shape_3_);enable-background:new    ;}
	.st4{opacity:0.3;fill:url(#Shape_4_);enable-background:new    ;}
	.st5{fill:#17BAE0;}
	.st6{fill:#FFFFFF;}
</style>
<title>tour-control</title>
<desc>Created with Sketch.</desc>
<g>
	<circle class="st0" cx="123.5" cy="123.5" r="107.3"/>
	<g>
		<path class="st1" d="M123.5,0C55.3,0,0,55.3,0,123.5S55.3,247,123.5,247S247,191.7,247,123.5S191.7,0,123.5,0z"/>
		<circle class="st0" cx="123.5" cy="123.5" r="100.3"/>
	</g>
	
		<linearGradient id="Shape_2_" gradientUnits="userSpaceOnUse" x1="-295.5607" y1="420.5756" x2="-295.5607" y2="419.6809" gradientTransform="matrix(247 0 0 -247 73127 103882.1563)">
		<stop  offset="0" style="stop-color:#002352"/>
		<stop  offset="1" style="stop-color:#002352"/>
	</linearGradient>
	<path id="Shape_8_" class="st2" d="M123.5,247c68.2,0,123.5-55.3,123.5-123.5S191.7,0,123.5,0S0,55.3,0,123.5S55.3,247,123.5,247z"
		/>
</g>
<linearGradient id="Shape_3_" gradientUnits="userSpaceOnUse" x1="-295.5607" y1="420.5756" x2="-295.5607" y2="419.6809" gradientTransform="matrix(247 0 0 -247 73127 103882.1563)">
	<stop  offset="0" style="stop-color:#002352"/>
	<stop  offset="1" style="stop-color:#002352"/>
</linearGradient>
<path id="Shape_14_" class="st3" d="M123.5,247c68.2,0,123.5-55.3,123.5-123.5S191.7,0,123.5,0S0,55.3,0,123.5S55.3,247,123.5,247z"
	/>
<linearGradient id="Shape_4_" gradientUnits="userSpaceOnUse" x1="-295.5607" y1="420.5756" x2="-295.5607" y2="419.6809" gradientTransform="matrix(247 0 0 -247 73127 103882.1563)">
	<stop  offset="0" style="stop-color:#002352"/>
	<stop  offset="1" style="stop-color:#002352"/>
</linearGradient>
<path id="Shape_1_" class="st4" d="M123.5,247c68.2,0,123.5-55.3,123.5-123.5S191.7,0,123.5,0S0,55.3,0,123.5S55.3,247,123.5,247z"
	/>
<path class="st5" d="M147.7,202.3H76.9c-3.8,0-6.9-3.1-6.9-6.9V52.5c0-3.8,3.1-6.9,6.9-6.9h70.8c3.8,0,6.9,3.1,6.9,6.9v142.9
	C154.6,199.2,151.5,202.3,147.7,202.3z"/>
<path class="st0" d="M145.2,198H79.4c-2.7,0-4.9-2.2-4.9-4.9v-139c0-2.7,2.2-4.9,4.9-4.9h65.8c2.7,0,4.9,2.2,4.9,4.9v139
	C150.1,195.8,147.9,198,145.2,198z"/>
<rect x="112.6" y="130.2" class="st0" width="59.9" height="77.6"/>
<g>
	<g>
		<path class="st1" d="M112.3,68.2c-14.9,0-27.1,12.1-27.1,27.1s12.1,27.1,27.1,27.1s27.1-12.1,27.1-27.1S127.3,68.2,112.3,68.2z"/>
		<circle class="st0" cx="112.3" cy="95.3" r="22"/>
	</g>
	<path class="st6" d="M119.1,84.2l0.8-2c0.1-0.2-0.1-0.4-0.3-0.4h-2.9l-0.9,2.4h-1.3l0.7-2c0.1-0.2-0.1-0.4-0.3-0.4H112l-0.9,2.4
		h-9.1c-0.4,0-0.8,0.2-1,0.6l-2.3,4h3.2h13.8c0.6,0,1.1,0.1,1.6,0.3c1,0.4,2.2,1.3,1.9,3.4c-0.5,3.5-4.1,9.7-11.8,9.8l4-10.5
		c0.2-0.4-0.2-0.9-0.6-0.9h-5.4l-6.5,16c0,0,1.3,0.2,3.4,0.2l-0.6,1.7h3c0.2,0,0.4-0.1,0.5-0.4l0.6-1.4c0.4,0,0.9-0.1,1.3-0.1
		l-0.7,1.9h3c0.2,0,0.4-0.1,0.5-0.4l0.8-2.2c4.9-1.1,10.1-3.5,13.2-8.6C130.1,87.3,123.6,84.7,119.1,84.2z"/>
</g>
<g>
	<path class="st6" d="M181.6,213.2h-58.3c-1.4,0-2.5-1.1-2.5-2.5v-37.5c0-1.4,1.1-2.5,2.5-2.5h58.3c1.4,0,2.5,1.1,2.5,2.5v37.5
		C184.2,212,183,213.2,181.6,213.2z"/>
	<path class="st6" d="M152.5,138.5c-12.1,0-21.9,9.8-21.9,21.9v17c0,1.1,1.8,2.1,4.1,2.1c2.2,0,4.1-0.9,4.1-2.1v-17
		c0-7.6,6.2-13.8,13.8-13.8s13.8,6.2,13.8,13.8v17c0,1.1,1.8,2.1,4.1,2.1c2.2,0,4.1-0.9,4.1-2.1v-17
		C174.4,148.3,164.6,138.5,152.5,138.5z"/>
</g>
<g>
	<circle class="st0" cx="151.7" cy="184.2" r="4.7"/>
	<rect x="149.6" y="181.3" class="st0" width="4.3" height="20.8"/>
</g>
</svg>
