<?xml version="1.0" encoding="utf-8"?>
<!-- Generator: Adobe Illustrator 21.1.0, SVG Export Plug-In . SVG Version: 6.00 Build 0)  -->
<svg version="1.1" id="Layer_1" xmlns="http://www.w3.org/2000/svg" xmlns:xlink="http://www.w3.org/1999/xlink" x="0px" y="0px"
	 viewBox="0 0 247 247" style="enable-background:new 0 0 247 247;" xml:space="preserve">
<style type="text/css">
	.st0{fill:#002352;}
	.st1{fill:#0066CC;}
	.st2{opacity:0.3;fill:url(#Shape_1_);enable-background:new    ;}
	.st3{opacity:0.3;fill:url(#Shape_2_);enable-background:new    ;}
	.st4{fill:#17BAE0;}
	.st5{fill:#FFFFFF;}
</style>
<title>onboarding-tour-phone</title>
<desc>Created with Sketch.</desc>
<g>
	<circle class="st0" cx="123.5" cy="123.5" r="107.3"/>
	<g>
		<path class="st1" d="M123.5,0C55.3,0,0,55.3,0,123.5S55.3,247,123.5,247S247,191.7,247,123.5S191.7,0,123.5,0z"/>
		<circle class="st0" cx="123.5" cy="123.5" r="100.3"/>
	</g>
	
		<linearGradient id="Shape_1_" gradientUnits="userSpaceOnUse" x1="-295.5607" y1="420.5756" x2="-295.5607" y2="419.6809" gradientTransform="matrix(247 0 0 -247 73127 103882.1563)">
		<stop  offset="0" style="stop-color:#002352"/>
		<stop  offset="1" style="stop-color:#002352"/>
	</linearGradient>
	<path id="Shape" class="st2" d="M123.5,247c68.2,0,123.5-55.3,123.5-123.5S191.7,0,123.5,0S0,55.3,0,123.5S55.3,247,123.5,247z"/>
</g>
<linearGradient id="Shape_2_" gradientUnits="userSpaceOnUse" x1="-295.5607" y1="420.5756" x2="-295.5607" y2="419.6809" gradientTransform="matrix(247 0 0 -247 73127 103882.1563)">
	<stop  offset="0" style="stop-color:#002352"/>
	<stop  offset="1" style="stop-color:#002352"/>
</linearGradient>
<path id="Shape_14_" class="st3" d="M123.5,247c68.2,0,123.5-55.3,123.5-123.5S191.7,0,123.5,0S0,55.3,0,123.5S55.3,247,123.5,247z"
	/>
<g>
	<path class="st4" d="M147.7,202.3H76.9c-3.8,0-6.9-3.1-6.9-6.9V52.5c0-3.8,3.1-6.9,6.9-6.9h70.8c3.8,0,6.9,3.1,6.9,6.9v142.9
		C154.6,199.2,151.5,202.3,147.7,202.3z"/>
	<path class="st0" d="M145.2,198H79.4c-2.7,0-4.9-2.2-4.9-4.9v-139c0-2.7,2.2-4.9,4.9-4.9h65.8c2.7,0,4.9,2.2,4.9,4.9v139
		C150.1,195.8,147.9,198,145.2,198z"/>
	<rect x="121.8" y="70.6" class="st0" width="50.8" height="99.3"/>
	<g id="Group_1_" transform="translate(102.000000, 66.000000)">
		<path id="Shape_4_" class="st5" d="M34.6,12.8H8.3v26.3h26.3V12.8L34.6,12.8z M30.9,35.3H12.1V16.5h18.8V35.3L30.9,35.3z"/>
		<polygon id="Shape_5_" class="st5" points="62.8,87.9 59.1,87.9 59.1,95.4 91,95.4 91,91.7 62.8,91.7 		"/>
		<rect id="Rectangle-path" x="15.9" y="20.3" class="st5" width="11.2" height="11.2"/>
		<path id="Shape_6_" class="st5" d="M8.3,95.4h26.3V69.1H8.3V95.4L8.3,95.4z M12.1,72.8h18.8v18.8H12.1V72.8L12.1,72.8z"/>
		<rect id="Rectangle-path_1_" x="15.9" y="76.6" class="st5" width="11.2" height="11.2"/>
		<path id="Shape_7_" class="st5" d="M64.7,12.8v26.3H91V12.8H64.7L64.7,12.8z M87.3,35.3H68.5V16.5h18.8V35.3L87.3,35.3z"/>
		<rect id="Rectangle-path_2_" x="72.2" y="20.3" class="st5" width="11.2" height="11.2"/>
		<rect id="Rectangle-path_3_" x="83.5" y="42.9" class="st5" width="7.5" height="7.5"/>
		<rect id="Rectangle-path_4_" x="8.3" y="57.8" class="st5" width="7.5" height="7.5"/>
		<polygon id="Shape_8_" class="st5" points="47.8,42.9 32.7,42.9 32.7,46.6 51.6,46.6 51.6,39.1 51.6,35.3 55.3,35.3 55.3,27.8 
			51.6,27.8 47.8,27.8 44,27.8 44,20.3 47.8,20.3 47.8,24 60.9,24 60.9,12.8 57.2,12.8 57.2,20.3 51.6,20.3 51.6,12.8 49.7,12.8 
			42.1,12.8 40.2,12.8 40.2,31.5 47.8,31.5 47.8,35.3 40.2,35.3 40.2,39.1 47.8,39.1 		"/>
		<polygon id="Shape_9_" class="st5" points="14,54.1 21.5,54.1 25.3,54.1 27.1,54.1 27.1,57.8 19.6,57.8 19.6,61.6 27.1,61.6 
			27.1,65.3 42.1,65.3 42.1,61.6 30.9,61.6 30.9,57.8 30.9,50.4 25.3,50.4 25.3,44.7 21.5,44.7 21.5,50.4 17.8,50.4 17.8,42.9 
			8.3,42.9 8.3,46.6 14,46.6 		"/>
		<polygon id="Shape_10_" class="st5" points="49.7,87.9 49.7,78.5 42.1,78.5 42.1,71 38.4,71 38.4,82.3 45.9,82.3 45.9,87.9 
			38.4,87.9 38.4,91.7 45.9,91.7 45.9,95.4 55.3,95.4 55.3,91.7 49.7,91.7 		"/>
		<polygon id="Shape_11_" class="st5" points="68.4,50.4 60.9,50.4 60.9,41 57.2,41 57.2,54.1 75.9,54.1 75.9,50.4 72.2,50.4 
			72.2,46.6 77.8,46.6 77.8,42.9 72.2,42.9 68.4,42.9 64.7,42.9 64.7,46.6 68.4,46.6 		"/>
		<polygon id="Shape_12_" class="st5" points="64.7,84.2 70.3,84.2 70.3,87.9 77.8,87.9 77.8,84.2 77.8,80.4 77.8,74.7 70.3,74.7 
			70.3,80.4 64.7,80.4 64.7,74.7 60.9,74.7 60.9,80.4 57.2,80.4 57.2,65.3 53.4,65.3 53.4,61.6 49.7,61.6 49.7,50.4 36.5,50.4 
			36.5,57.8 40.2,57.8 40.2,54.1 45.9,54.1 45.9,61.6 45.9,69.1 53.4,69.1 53.4,80.4 53.4,84.2 57.2,84.2 60.9,84.2 		"/>
		<polygon id="Shape_13_" class="st5" points="87.3,59.7 81.6,59.7 77.8,59.7 68.4,59.7 68.4,67.2 64.7,67.2 64.7,59.7 60.9,59.7 
			60.9,71 72.2,71 72.2,63.5 77.8,63.5 77.8,69.1 81.6,69.1 81.6,63.5 87.3,63.5 87.3,74.7 81.6,74.7 81.6,86 91,86 91,82.3 
			85.4,82.3 85.4,78.5 91,78.5 91,63.5 91,59.7 91,54.1 87.3,54.1 		"/>
	</g>
</g>
</svg>
